<svg
  viewBox="0 0 512 512"
  xmlns="http://www.w3.org/2000/svg"
  shape-rendering="geometricPrecision"
>
  <rect width="512" height="512" rx="120" fill="#09090b" />
  <g transform="translate(256, 256) scale(1.5) translate(-300, -180)" fill="#ffffff">
    <g transform="translate(0, 360) scale(0.1, -0.1)">
      <path d="M2901 2705 c-114 -26 -207 -97 -286 -220 -36 -57 -66 -111 -230 -425 -65 -124 -140 -265 -167 -315 -172 -318 -191 -371 -186 -505 2 -77 8 -106 29 -150 36 -76 77 -121 148 -159 82 -43 154 -55 253 -42 101 14 182 52 289 137 124 98 148 109 249 109 100 0 128 -12 242 -103 139 -112 223 -145 363 -146 80 0 97 3 155 30 90 42 134 84 172 162 29 58 33 78 36 162 5 142 2 152 -250 625 -41 77 -110 208 -153 290 -181 349 -238 433 -334 494 -94 61 -217 82 -330 56z m-1 -164 c0 -6 -4 -12 -9 -16 -12 -7 -73 -120 -328 -610 -224 -428 -253 -486 -253 -499 0 -7 9 -25 21 -40 34 -43 67 -35 172 40 182 131 311 179 482 179 61 0 134 -6 163 -14 49 -12 55 -17 78 -63 l26 -51 -24 7 c-123 35 -146 38 -258 34 -167 -7 -249 -39 -421 -165 -47 -34 -98 -67 -113 -73 -71 -27 -154 3 -186 65 -32 63 -20 119 54 260 38 72 138 263 224 425 178 340 213 400 262 454 48 54 110 91 110 67z m304 -67 c35 -25 85 -106 181 -289 43 -82 134 -256 203 -385 164 -309 218 -417 231 -465 37 -137 -24 -262 -147 -300 -22 -6 -21 -3 12 45 45 66 60 119 53 199 -6 76 -58 185 -360 746 -206 382 -218 399 -273 380 -36 -13 -28 0 -300 -519 l-99 -189 -54 -24 c-29 -13 -55 -22 -57 -21 -1 2 50 104 115 228 310 596 296 571 345 602 38 24 111 20 150 -8z m47 -521 c246 -458 342 -653 342 -697 0 -87 -59 -146 -146 -146 -55 0 -90 16 -161 73 -105 83 -232 118 -353 97 -93 -16 -153 -45 -253 -125 -47 -37 -110 -79 -140 -93 -65 -31 -169 -41 -226 -22 -42 14 -118 85 -126 118 -6 22 -6 21 37 -3 23 -14 70 -30 103 -36 78 -14 163 7 235 57 29 19 87 60 130 89 107 74 186 99 307 100 124 0 202 -26 327 -111 99 -67 111 -71 146 -53 52 28 49 58 -14 183 -61 119 -189 362 -301 568 l-79 148 22 40 c13 22 24 40 25 40 1 0 57 -102 125 -227z m-197 -114 c26 -49 46 -92 43 -95 -2 -3 -49 -3 -104 -2 l-100 3 49 93 c28 50 53 92 57 92 3 0 28 -41 55 -91z" />
    </g>
  </g>
</svg>
